<?xml version="1.0" encoding="utf-8"?>
<!-- Generator: Adobe Illustrator 24.1.1, SVG Export Plug-In . SVG Version: 6.00 Build 0)  -->
<svg version="1.1" id="Layer_1" xmlns="http://www.w3.org/2000/svg" xmlns:xlink="http://www.w3.org/1999/xlink" x="0px" y="0px"
	 viewBox="0 0 4000 4000" style="enable-background:new 0 0 4000 4000;" xml:space="preserve">
<style type="text/css">
	.st0{fill:#F4FFD1;}
	.st1{fill:#A10E28;}
	.st2{fill:url(#SVGID_1_);}
	.st3{fill:url(#SVGID_2_);}
	.st4{fill:#FFFFFF;}
	.st5{fill:url(#SVGID_3_);}
</style>
<g>
	<path class="st0" d="M1218.73,2107.69"/>
	<path class="st1" d="M1219.88,2105.03c0,0-37.89-248.92,205.08-288.03c0,0,154.68-58.07,282.76,226.5l-159.41-112
		c0,0-299.94,646.39,197.84,1169.06c0,0-14.22-522.67,465.78-739.56c0,0-14.22,66.84-42.67,95.64c0,0,719.29-192.06,666.99-1201.71
		c0,0-87.44,142.51-133.66,199.4c0,0,85.96-628.35-466.93-864c0,0,318.23,347.64-158.85,899.56c0,0,152.89-49.78,231.11-117.33
		c0,0-91.57,291.66-383.33,350.72c0,0-122.66-85.33-274.44-116.05c0,0,99.79-195.94,56.89-526.22c0,0-57.48,282.47-280.42,371.78
		C1426.62,1452.78,960.76,1613.59,1219.88,2105.03z"/>
	<linearGradient id="SVGID_1_" gradientUnits="userSpaceOnUse" x1="1263.4316" y1="1422.8146" x2="1490.087" y2="1262.8225">
		<stop  offset="0" style="stop-color:#F5942F"/>
		<stop  offset="1" style="stop-color:#FCD522"/>
	</linearGradient>
	<path class="st2" d="M1574.48,1166.54c0,0-20.26,69.45-61.4,129.81c-31,45.48-79.23,76.47-133.4,86.29
		c-44.77,8.11-118.49,30.96-150.39,94.85c0,0,19.39-109.65,102.18-168.25c20.84-14.75,44.75-24.53,69.81-29.38
		C1439.22,1272.51,1538.62,1246.08,1574.48,1166.54z"/>
	<path class="st0" d="M1439.22,1670.33"/>
	<linearGradient id="SVGID_2_" gradientUnits="userSpaceOnUse" x1="1650.6178" y1="2516.9348" x2="2196.5842" y2="1378.9139">
		<stop  offset="0" style="stop-color:#E72C3A"/>
		<stop  offset="1" style="stop-color:#E48534"/>
	</linearGradient>
	<path class="st3" d="M1705.89,1083.67c-7.11,494.22-266.67,586.67-266.67,586.67s369.78,35.56,494.22,497.78L1777,2150.33
		c0,0-334.22,341.33-32,952.89c0,0-174.22-597.33,512-960c0,0-3.56,124.8-46.22,220.44s-42.67,95.64-42.67,95.64
		s305.78-132.39,412.44-654.46c0,0-177.53,135.84-373.08,182.06c0,0,475.75-614.65,28.19-1396.58c0,0,232.9,365.33-160,902.22
		c0,0,3.56,46.22,231.11-117.33c0,0-99.56,248.89-380.44,337.78c0,0-99.56-92.44-277.33-103.11c0,0,127.88-159.06,78.21-415.54
		C1687.1,987.18,1716.85,1139.65,1705.89,1083.67z"/>
	<path class="st4" d="M2255.21,2171.21c0,0-613.32,306.24-510.21,932.01c0,0-188.44-583.11,512-960L2255.21,2171.21z"/>
	<linearGradient id="SVGID_3_" gradientUnits="userSpaceOnUse" x1="2550.415" y1="2071.0073" x2="2359.0867" y2="1100.1927">
		<stop  offset="0" style="stop-color:#F5942F"/>
		<stop  offset="1" style="stop-color:#FCD522"/>
	</linearGradient>
	<path class="st5" d="M2235.67,590.33c0,0,435.07,267.26,285.74,1053.04c0,0,144.45-91.26,319.3-429.04
		c0,0,152.3,979.43-672.59,1246.46c0,0,320.07-178.09,405.4-643.27c0,0-224.07,163.03-376.96,170.14
		C2196.56,1987.67,2680.11,1386.78,2235.67,590.33z"/>
</g>
</svg>
